<svg id="visual" viewBox="0 0 900 600" width="900" height="600" xmlns="http://www.w3.org/2000/svg" xmlns:xlink="http://www.w3.org/1999/xlink" version="1.1"><rect x="0" y="0" width="900" height="600" fill="#001220"></rect><defs><linearGradient id="grad1_0" x1="33.3%" y1="0%" x2="100%" y2="100%"><stop offset="20%" stop-color="#001220" stop-opacity="1"></stop><stop offset="80%" stop-color="#001220" stop-opacity="1"></stop></linearGradient></defs><defs><linearGradient id="grad2_0" x1="0%" y1="0%" x2="66.7%" y2="100%"><stop offset="20%" stop-color="#001220" stop-opacity="1"></stop><stop offset="80%" stop-color="#001220" stop-opacity="1"></stop></linearGradient></defs><g transform="translate(900, 0)"><path d="M0 486.7C-44.3 437 -88.7 387.3 -154.2 372.3C-219.8 357.3 -306.5 377 -344.2 344.2C-381.9 311.4 -370.6 226.1 -386.2 160C-401.8 93.8 -444.3 46.9 -486.7 0L0 0Z" fill="#ff4d00"></path></g><g transform="translate(0, 600)"><path d="M0 -486.7C66.8 -482.9 133.6 -479.1 186.3 -449.7C239 -420.3 277.6 -365.4 317.5 -317.5C357.4 -269.5 398.4 -228.6 426.8 -176.8C455.2 -125 471 -62.5 486.7 0L0 0Z" fill="#ff4d00"></path></g></svg>