<svg id="visual" viewBox="0 0 900 600" width="900" height="600" xmlns="http://www.w3.org/2000/svg" xmlns:xlink="http://www.w3.org/1999/xlink" version="1.1"><rect x="0" y="0" width="900" height="600" fill="#001829"></rect><g fill="none" stroke="#297EA6" stroke-width="4"><path d="M0 -131.2L29.5 -40.5L124.8 -40.5L47.7 15.5L77.1 106.1L0 50.1L-77.1 106.1L-47.7 15.5L-124.8 -40.5L-29.5 -40.5Z" transform="translate(796 277)"></path><path d="M0 -33L7.4 -10.2L31.4 -10.2L12 3.9L19.4 26.7L0 12.6L-19.4 26.7L-12 3.9L-31.4 -10.2L-7.4 -10.2Z" transform="translate(325 82)"></path><path d="M0 -97.2L21.8 -30L92.5 -30L35.3 11.5L57.1 78.6L0 37.1L-57.1 78.6L-35.3 11.5L-92.5 -30L-21.8 -30Z" transform="translate(525 564)"></path><path d="M0 -78.3L17.6 -24.2L74.5 -24.2L28.5 9.2L46 63.4L0 29.9L-46 63.4L-28.5 9.2L-74.5 -24.2L-17.6 -24.2Z" transform="translate(92 449)"></path><path d="M0 -58.5L13.1 -18.1L55.7 -18.1L21.3 6.9L34.4 47.3L0 22.4L-34.4 47.3L-21.3 6.9L-55.7 -18.1L-13.1 -18.1Z" transform="translate(20 25)"></path><path d="M0 -101.9L22.9 -31.5L96.9 -31.5L37 12L59.9 82.5L0 38.9L-59.9 82.5L-37 12L-96.9 -31.5L-22.9 -31.5Z" transform="translate(706 6)"></path><path d="M0 -41.5L9.3 -12.8L39.5 -12.8L15.1 4.9L24.4 33.6L0 15.9L-24.4 33.6L-15.1 4.9L-39.5 -12.8L-9.3 -12.8Z" transform="translate(897 595)"></path></g></svg>